<?xml version="1.0" ?><svg viewBox="0 0 100 100" xmlns="http://www.w3.org/2000/svg"><defs><style>
      .a {
        fill: #f0f2ff;
      }

      .b, .f {
        fill: #d6daff;
      }

      .c {
        fill: none;
      }

      .c, .d, .f, .g, .h {
        stroke: #4550e5;
      }

      .c, .d, .f, .h {
        stroke-linecap: round;
        stroke-linejoin: round;
      }

      .d, .e, .g {
        fill: #fff;
      }

      .g {
        stroke-miterlimit: 10;
      }

      .h {
        fill: #e8f4fa;
      }
    </style></defs><title/><g><circle class="a" cx="53.523" cy="44.931" r="40"/><g><g><path class="b" d="M80.833,94.658a.553.553,0,0,0,.734.374,5.816,5.816,0,1,0-7.831-4.527.554.554,0,0,0,.69.449l1.619-.432a.554.554,0,0,0,.407-.594,3.047,3.047,0,1,1,4.26,2.462.553.553,0,0,0-.311.65Z"/><path class="c" d="M80.833,94.658a.553.553,0,0,0,.734.374,5.816,5.816,0,1,0-7.831-4.527.554.554,0,0,0,.69.449l1.619-.432a.554.554,0,0,0,.407-.594,3.047,3.047,0,1,1,4.26,2.462.553.553,0,0,0-.311.65Z"/><rect class="b" height="4.431" transform="translate(-17.442 130.978) rotate(-69.725)" width="12.225" x="79.174" y="75.792"/><rect class="c" height="4.431" transform="translate(-17.442 130.978) rotate(-69.725)" width="12.225" x="79.174" y="75.792"/><circle class="d" cx="82.625" cy="85.219" r="3.323"/><rect class="b" height="5.095" transform="translate(-31.496 71.282) rotate(-59.211)" width="19.104" x="37.425" y="60.809"/><rect class="c" height="5.095" transform="translate(-31.496 71.282) rotate(-59.211)" width="19.104" x="37.425" y="60.809"/><rect class="b" height="19.104" transform="translate(-20.786 51.22) rotate(-30.789)" width="5.095" x="80.072" y="53.804"/><rect class="c" height="19.104" transform="translate(-20.786 51.22) rotate(-30.789)" width="5.095" x="80.072" y="53.804"/><rect class="e" height="14.055" transform="translate(-43.253 61.576) rotate(-59.211)" width="5.095" x="30.011" y="61.822"/><rect class="f" height="14.055" transform="translate(-43.253 61.576) rotate(-59.211)" width="5.095" x="30.011" y="61.822"/><path class="b" d="M28.239,51.877a.636.636,0,0,1,.943.091,6.687,6.687,0,1,1-10.39-.454.638.638,0,0,1,.947-.009l1.3,1.42a.637.637,0,0,1,.028.828A3.5,3.5,0,1,0,26.719,54a.634.634,0,0,1,.1-.822Z"/><path class="c" d="M28.239,51.877a.636.636,0,0,1,.943.091,6.687,6.687,0,1,1-10.39-.454.638.638,0,0,1,.947-.009l1.3,1.42a.637.637,0,0,1,.028.828A3.5,3.5,0,1,0,26.719,54a.634.634,0,0,1,.1-.822Z"/><rect class="b" height="5.095" width="5.095" x="62.251" y="44.931"/><rect class="c" height="5.095" width="5.095" x="62.251" y="44.931"/><rect class="d" height="19.104" rx="3.821" width="20.378" x="54.609" y="50.026"/><path class="d" d="M54.609,58.941H49.514a3.821,3.821,0,0,1-3.82-3.821V53.846a3.82,3.82,0,0,1,3.82-3.82h2.548a2.547,2.547,0,0,1,2.547,2.547Z"/><rect class="b" height="7.642" width="7.642" x="60.977" y="69.13"/><rect class="c" height="7.642" width="7.642" x="60.977" y="69.13"/><path class="b" d="M69.893,58.941a2.547,2.547,0,0,1-2.548,2.547H62.251A2.547,2.547,0,0,1,59.7,58.941V50.026h10.19Z"/><polygon class="e" points="68.192 50.026 59.703 58.508 59.703 50.026 68.192 50.026"/><path class="c" d="M69.893,58.941a2.547,2.547,0,0,1-2.548,2.547H62.251A2.547,2.547,0,0,1,59.7,58.941V50.026h10.19Z"/><circle class="d" cx="40.648" cy="73.213" r="3.821"/><circle class="d" cx="87.373" cy="71.912" r="3.821"/><circle class="d" cx="25.174" cy="63.993" r="3.821"/><path class="d" d="M72.09,76.772a2.547,2.547,0,0,1,2.4,3.4,10.193,10.193,0,0,1-19.218,0,2.547,2.547,0,0,1,2.4-3.4Z"/><path class="d" d="M74.987,58.941H80.1a3.821,3.821,0,0,0,3.821-3.821V53.846a3.82,3.82,0,0,0-3.821-3.82H77.554a2.577,2.577,0,0,0-2.567,2.547Z"/><g><rect class="b" height="28.02" rx="3.821" width="35.662" x="46.967" y="16.911"/><path class="e" d="M79.254,16.937l-28,27.994h-.471a3.816,3.816,0,0,1-3.821-3.821V20.732a3.816,3.816,0,0,1,3.821-3.821h28.02C78.961,16.911,79.1,16.924,79.254,16.937Z"/><rect class="c" height="28.02" rx="3.821" width="35.662" x="46.967" y="16.911"/><path class="g" d="M59.7,33.787A1.594,1.594,0,0,1,58.111,32.2c0-1.448-.678-2.229-.955-2.229s-.955.781-.955,2.229a1.592,1.592,0,0,1-3.184,0c0-3.036,1.818-5.413,4.139-5.413S61.3,29.159,61.3,32.2A1.594,1.594,0,0,1,59.7,33.787Z"/><path class="g" d="M74.987,33.787A1.594,1.594,0,0,1,73.4,32.2c0-1.448-.678-2.229-.955-2.229s-.956.781-.956,2.229a1.592,1.592,0,1,1-3.184,0c0-3.036,1.818-5.413,4.14-5.413s4.139,2.377,4.139,5.413A1.594,1.594,0,0,1,74.987,33.787Z"/></g></g><g><g><path class="b" d="M20.926,27.892a10.08,10.08,0,0,1-1.453-4.6L19,15.942H15.972L15.5,23.3a10.091,10.091,0,0,1-1.452,4.6h0a10.082,10.082,0,0,0-1.474,5.249V49.214a1.512,1.512,0,0,0,1.512,1.512h6.806A1.512,1.512,0,0,0,22.4,49.214V33.141a10.081,10.081,0,0,0-1.473-5.249Z"/><path class="c" d="M20.926,27.892a10.08,10.08,0,0,1-1.453-4.6L19,15.942H15.972L15.5,23.3a10.091,10.091,0,0,1-1.452,4.6h0a10.082,10.082,0,0,0-1.474,5.249V49.214a1.512,1.512,0,0,0,1.512,1.512h6.806A1.512,1.512,0,0,0,22.4,49.214V33.141a10.081,10.081,0,0,0-1.473-5.249Z"/><rect class="d" height="3.113" rx="1.223" width="4.537" x="15.216" y="12.829"/><polygon class="d" points="12.569 46.825 22.399 42.169 22.399 34.05 12.569 38.707 12.569 46.825"/></g><path class="d" d="M18.816,12.829H16.371l-.687-2.059a1.223,1.223,0,0,1,1.16-1.609h1.5A1.223,1.223,0,0,1,19.5,10.77Z"/><g><path class="e" d="M22.349,29.944a1.223,1.223,0,0,0-1.223,1.222V38.5a4.89,4.89,0,0,0,9.78,0V31.166a1.222,1.222,0,0,0-1.222-1.222Z"/><path class="c" d="M22.349,29.944a1.223,1.223,0,0,0-1.223,1.222V38.5a4.89,4.89,0,0,0,9.78,0V31.166a1.222,1.222,0,0,0-1.222-1.222Z"/><line class="d" x1="26.016" x2="26.016" y1="43.391" y2="50.726"/></g><path class="b" d="M24.181,37.279A1.222,1.222,0,0,0,22.959,38.5a3.056,3.056,0,1,0,6.112,0,1.222,1.222,0,0,0-1.222-1.222Z"/><g><path class="e" d="M28.461,29.944a1.222,1.222,0,0,0-1.222,1.222V38.5a4.89,4.89,0,0,0,9.78,0V31.166A1.222,1.222,0,0,0,35.8,29.944Z"/><path class="c" d="M28.461,29.944a1.222,1.222,0,0,0-1.222,1.222V38.5a4.89,4.89,0,0,0,9.78,0V31.166A1.222,1.222,0,0,0,35.8,29.944Z"/><line class="d" x1="32.129" x2="32.129" y1="43.391" y2="50.726"/></g><path class="b" d="M30.294,37.279A1.223,1.223,0,0,0,29.071,38.5a3.057,3.057,0,1,0,6.113,0,1.222,1.222,0,0,0-1.223-1.222Z"/><path class="h" d="M39.9,50.726a.612.612,0,0,1,.575.82,2.4,2.4,0,0,1-2.26,1.584H8.774a2.406,2.406,0,0,1-2.261-1.584.613.613,0,0,1,.575-.82Z"/></g></g></g></svg>